<svg width="109" height="15" viewBox="0 0 109 15" fill="none" xmlns="http://www.w3.org/2000/svg">
<path d="M-2.44081e-05 14.4V2.38419e-05H9.39998V2.54002H2.71998V5.62002H8.19998V8.16002H2.71998V11.86H9.39998V14.4H-2.44081e-05ZM15.8569 14.7C14.7369 14.7 13.7769 14.45 12.9769 13.95C12.1769 13.45 11.5635 12.77 11.1369 11.91C10.7102 11.05 10.4969 10.08 10.4969 9.00002C10.4969 7.90669 10.7169 6.93002 11.1569 6.07002C11.6035 5.21002 12.2302 4.53336 13.0369 4.04002C13.8435 3.54669 14.7969 3.30002 15.8969 3.30002C17.1702 3.30002 18.2369 3.62336 19.0969 4.27002C19.9635 4.91002 20.5169 5.78669 20.7569 6.90002L18.0369 7.62002C17.8769 7.06002 17.5969 6.62336 17.1969 6.31002C16.8035 5.99669 16.3569 5.84002 15.8569 5.84002C15.2835 5.84002 14.8135 5.98002 14.4469 6.26002C14.0802 6.53336 13.8102 6.91002 13.6369 7.39002C13.4635 7.86336 13.3769 8.40002 13.3769 9.00002C13.3769 9.94002 13.5835 10.7034 13.9969 11.29C14.4169 11.87 15.0369 12.16 15.8569 12.16C16.4702 12.16 16.9369 12.02 17.2569 11.74C17.5769 11.46 17.8169 11.06 17.9769 10.54L20.7569 11.12C20.4502 12.2667 19.8702 13.15 19.0169 13.77C18.1635 14.39 17.1102 14.7 15.8569 14.7ZM26.624 14.7C25.5374 14.7 24.584 14.4567 23.764 13.97C22.944 13.4834 22.304 12.8134 21.844 11.96C21.3907 11.1 21.164 10.1134 21.164 9.00002C21.164 7.87336 21.3974 6.88336 21.864 6.03002C22.3307 5.17002 22.974 4.50002 23.794 4.02002C24.614 3.54002 25.5574 3.30002 26.624 3.30002C27.7107 3.30002 28.664 3.54336 29.484 4.03002C30.3107 4.51669 30.954 5.19002 31.414 6.05002C31.874 6.90336 32.104 7.88669 32.104 9.00002C32.104 10.12 31.8707 11.11 31.404 11.97C30.944 12.8234 30.3007 13.4934 29.474 13.98C28.654 14.46 27.704 14.7 26.624 14.7ZM26.624 12.16C27.4974 12.16 28.1474 11.8667 28.574 11.28C29.0074 10.6867 29.224 9.92669 29.224 9.00002C29.224 8.04002 29.004 7.27336 28.564 6.70002C28.1307 6.12669 27.484 5.84002 26.624 5.84002C26.0307 5.84002 25.544 5.97336 25.164 6.24002C24.784 6.50669 24.5007 6.87669 24.314 7.35002C24.134 7.82336 24.044 8.37336 24.044 9.00002C24.044 9.96669 24.2607 10.7367 24.694 11.31C25.134 11.8767 25.7774 12.16 26.624 12.16ZM46.6031 14.4V8.02002C46.6031 7.30669 46.4331 6.75336 46.0931 6.36002C45.7598 5.96002 45.2964 5.76002 44.7031 5.76002C44.3231 5.76002 43.9931 5.85002 43.7131 6.03002C43.4331 6.20336 43.2131 6.45002 43.0531 6.77002C42.8998 7.08336 42.8231 7.44669 42.8231 7.86002L41.6831 7.10002C41.6831 6.36002 41.8564 5.70669 42.2031 5.14002C42.5564 4.57336 43.0264 4.13336 43.6131 3.82002C44.2064 3.50002 44.8631 3.34002 45.5831 3.34002C46.8164 3.34002 47.7464 3.70669 48.3731 4.44002C49.0064 5.16669 49.3231 6.12002 49.3231 7.30002V14.4H46.6031ZM33.5831 14.4V3.60002H35.9831V7.18002H36.3231V14.4H33.5831ZM40.1031 14.4V8.02002C40.1031 7.30669 39.9331 6.75336 39.5931 6.36002C39.2598 5.96002 38.7964 5.76002 38.2031 5.76002C37.6364 5.76002 37.1798 5.95669 36.8331 6.35002C36.4931 6.73669 36.3231 7.24002 36.3231 7.86002L35.1831 7.06002C35.1831 6.35336 35.3598 5.72002 35.7131 5.16002C36.0664 4.60002 36.5398 4.15669 37.1331 3.83002C37.7331 3.50336 38.4031 3.34002 39.1431 3.34002C39.9898 3.34002 40.6831 3.52002 41.2231 3.88002C41.7698 4.24002 42.1731 4.72002 42.4331 5.32002C42.6931 5.92002 42.8231 6.58002 42.8231 7.30002V14.4H40.1031ZM64.2234 14.4V8.02002C64.2234 7.30669 64.0534 6.75336 63.7134 6.36002C63.3801 5.96002 62.9167 5.76002 62.3234 5.76002C61.9434 5.76002 61.6134 5.85002 61.3334 6.03002C61.0534 6.20336 60.8334 6.45002 60.6734 6.77002C60.5201 7.08336 60.4434 7.44669 60.4434 7.86002L59.3034 7.10002C59.3034 6.36002 59.4767 5.70669 59.8234 5.14002C60.1767 4.57336 60.6467 4.13336 61.2334 3.82002C61.8267 3.50002 62.4834 3.34002 63.2034 3.34002C64.4367 3.34002 65.3667 3.70669 65.9934 4.44002C66.6267 5.16669 66.9434 6.12002 66.9434 7.30002V14.4H64.2234ZM51.2034 14.4V3.60002H53.6034V7.18002H53.9434V14.4H51.2034ZM57.7234 14.4V8.02002C57.7234 7.30669 57.5534 6.75336 57.2134 6.36002C56.8801 5.96002 56.4167 5.76002 55.8234 5.76002C55.2567 5.76002 54.8001 5.95669 54.4534 6.35002C54.1134 6.73669 53.9434 7.24002 53.9434 7.86002L52.8034 7.06002C52.8034 6.35336 52.9801 5.72002 53.3334 5.16002C53.6867 4.60002 54.1601 4.15669 54.7534 3.83002C55.3534 3.50336 56.0234 3.34002 56.7634 3.34002C57.6101 3.34002 58.3034 3.52002 58.8434 3.88002C59.3901 4.24002 59.7934 4.72002 60.0534 5.32002C60.3134 5.92002 60.4434 6.58002 60.4434 7.30002V14.4H57.7234ZM73.6684 14.7C72.5617 14.7 71.5851 14.4634 70.7384 13.99C69.8984 13.51 69.2384 12.8534 68.7584 12.02C68.2851 11.18 68.0484 10.22 68.0484 9.14002C68.0484 7.96002 68.2817 6.93336 68.7484 6.06002C69.2151 5.18669 69.8584 4.51002 70.6784 4.03002C71.4984 3.54336 72.4417 3.30002 73.5084 3.30002C74.6417 3.30002 75.6051 3.56669 76.3984 4.10002C77.1917 4.63336 77.7784 5.38336 78.1584 6.35002C78.5384 7.31669 78.6717 8.45336 78.5584 9.76002H75.8684V8.76002C75.8684 7.66002 75.6917 6.87002 75.3384 6.39002C74.9917 5.90336 74.4217 5.66002 73.6284 5.66002C72.7017 5.66002 72.0184 5.94336 71.5784 6.51002C71.1451 7.07002 70.9284 7.90002 70.9284 9.00002C70.9284 10.0067 71.1451 10.7867 71.5784 11.34C72.0184 11.8867 72.6617 12.16 73.5084 12.16C74.0417 12.16 74.4984 12.0434 74.8784 11.81C75.2584 11.5767 75.5484 11.24 75.7484 10.8L78.4684 11.58C78.0617 12.5667 77.4184 13.3334 76.5384 13.88C75.6651 14.4267 74.7084 14.7 73.6684 14.7ZM70.0884 9.76002V7.74002H77.2484V9.76002H70.0884ZM80.1164 14.4V3.60002H82.5164V6.24002L82.2564 5.90002C82.3964 5.52669 82.5831 5.18669 82.8164 4.88002C83.0497 4.57336 83.3364 4.32002 83.6764 4.12002C83.9364 3.96002 84.2197 3.83669 84.5264 3.75002C84.8331 3.65669 85.1497 3.60002 85.4764 3.58002C85.8031 3.55336 86.1297 3.56002 86.4564 3.60002V6.14002C86.1564 6.04669 85.8064 6.01669 85.4064 6.05002C85.0131 6.07669 84.6564 6.16669 84.3364 6.32002C84.0164 6.46669 83.7464 6.66336 83.5264 6.91002C83.3064 7.15002 83.1397 7.43669 83.0264 7.77002C82.9131 8.09669 82.8564 8.46669 82.8564 8.88002V14.4H80.1164ZM92.2233 14.7C91.1033 14.7 90.1433 14.45 89.3433 13.95C88.5433 13.45 87.9299 12.77 87.5033 11.91C87.0766 11.05 86.8633 10.08 86.8633 9.00002C86.8633 7.90669 87.0833 6.93002 87.5233 6.07002C87.9699 5.21002 88.5966 4.53336 89.4033 4.04002C90.2099 3.54669 91.1633 3.30002 92.2633 3.30002C93.5366 3.30002 94.6033 3.62336 95.4633 4.27002C96.3299 4.91002 96.8833 5.78669 97.1233 6.90002L94.4033 7.62002C94.2433 7.06002 93.9633 6.62336 93.5633 6.31002C93.1699 5.99669 92.7233 5.84002 92.2233 5.84002C91.6499 5.84002 91.1799 5.98002 90.8133 6.26002C90.4466 6.53336 90.1766 6.91002 90.0033 7.39002C89.8299 7.86336 89.7433 8.40002 89.7433 9.00002C89.7433 9.94002 89.9499 10.7034 90.3633 11.29C90.7833 11.87 91.4033 12.16 92.2233 12.16C92.8366 12.16 93.3033 12.02 93.6233 11.74C93.9433 11.46 94.1833 11.06 94.3433 10.54L97.1233 11.12C96.8166 12.2667 96.2366 13.15 95.3833 13.77C94.5299 14.39 93.4766 14.7 92.2233 14.7ZM103.15 14.7C102.044 14.7 101.067 14.4634 100.22 13.99C99.3804 13.51 98.7204 12.8534 98.2404 12.02C97.7671 11.18 97.5304 10.22 97.5304 9.14002C97.5304 7.96002 97.7638 6.93336 98.2304 6.06002C98.6971 5.18669 99.3404 4.51002 100.16 4.03002C100.98 3.54336 101.924 3.30002 102.99 3.30002C104.124 3.30002 105.087 3.56669 105.88 4.10002C106.674 4.63336 107.26 5.38336 107.64 6.35002C108.02 7.31669 108.154 8.45336 108.04 9.76002H105.35V8.76002C105.35 7.66002 105.174 6.87002 104.82 6.39002C104.474 5.90336 103.904 5.66002 103.11 5.66002C102.184 5.66002 101.5 5.94336 101.06 6.51002C100.627 7.07002 100.41 7.90002 100.41 9.00002C100.41 10.0067 100.627 10.7867 101.06 11.34C101.5 11.8867 102.144 12.16 102.99 12.16C103.524 12.16 103.98 12.0434 104.36 11.81C104.74 11.5767 105.03 11.24 105.23 10.8L107.95 11.58C107.544 12.5667 106.9 13.3334 106.02 13.88C105.147 14.4267 104.19 14.7 103.15 14.7ZM99.5704 9.76002V7.74002H106.73V9.76002H99.5704Z" fill="#0E1422"/>
</svg>
